Coordinates
version=1
nRows=14
nColumns=24
inDegrees=yes

Units are S.I. units (second, meters, Newtons, ...)
Angles are in degrees.

endheader
time	pelvis_tilt	pelvis_list	pelvis_rotation	pelvis_tx	pelvis_ty	pelvis_tz	hip_flexion_r	hip_adduction_r	hip_rotation_r	knee_angle_r	ankle_angle_r	subtalar_angle_r	mtp_angle_r	hip_flexion_l	hip_adduction_l	hip_rotation_l	knee_angle_l	ankle_angle_l	subtalar_angle_l	mtp_angle_l	lumbar_extension	lumbar_bending	lumbar_rotation
      5.30500000	     13.79811344	     -3.20466011	     -4.51443783	      1.58710133	      0.73094936	     -0.26366948	    -30.83842224	      3.31295700	     -6.01841561	    -14.13576797	     33.69598267	     28.33213928	      0.00000000	     15.46058942	     -0.45319938	     -5.68577205	    -12.97739543	     18.45152143	      6.21971393	      0.00000000	    -33.17981921	      1.75114658	     14.46739051
      5.31000000	     13.80621066	     -2.71357218	     -4.63153859	      1.59619950	      0.73054501	     -0.26368469	    -30.88179969	      2.54400931	     -6.55063259	    -15.49979454	     33.15406311	     29.09730104	      0.00000000	     15.23391750	      0.22450925	     -5.41249890	    -13.15781289	     18.07842143	      5.56359633	      0.00000000	    -32.91182142	      1.14692053	     14.49254979
      5.31500000	     13.82044502	     -2.17305527	     -4.75597157	      1.60529829	      0.73024251	     -0.26369299	    -30.82635837	      1.71625073	     -7.02711632	    -17.05262871	     32.55493734	     29.70269933	      0.00000000	     15.03761305	      0.94344762	     -5.15990974	    -13.55904366	     17.64871058	      4.82636693	      0.00000000	    -32.64883223	      0.47646787	     14.55605755
      5.32000000	     13.85626555	     -1.58285679	     -4.82314302	      1.61447046	      0.73005535	     -0.26378401	    -30.72731192	      0.84223341	     -7.59171327	    -18.72027229	     31.70521218	     30.36970435	      0.00000000	     14.84686068	      1.73110334	     -4.84093631	    -14.14258714	     17.18517786	      3.94079563	      0.00000000	    -32.39566076	     -0.21394879	     14.53827026
      5.32500000	     13.89686874	     -0.95336501	     -4.86917731	      1.62366504	      0.72997951	     -0.26387252	    -30.54524410	     -0.06454678	     -8.09377386	    -20.53167568	     30.64518983	     30.95050634	      0.00000000	     14.66447971	      2.55234166	     -4.54995280	    -14.85582946	     16.66672465	      3.03926286	      0.00000000	    -32.14639206	     -0.93953758	     14.44888892
      5.33000000	     13.97436636	     -0.29811590	     -4.85366278	      1.63288297	      0.73000541	     -0.26407161	    -30.33620906	     -1.00569622	     -8.74274863	    -22.44400639	     29.34438143	     31.56688849	      0.00000000	     14.47756965	      3.42375048	     -4.16192897	    -15.73014804	     16.16068028	      2.01415129	      0.00000000	    -31.93812972	     -1.66972680	     14.39954579
      5.33500000	     14.05607900	      0.38521446	     -4.82071664	      1.64209654	      0.73014032	     -0.26428583	    -30.04221138	     -1.97673059	     -9.33170680	    -24.48411687	     27.80164599	     32.08835667	      0.00000000	     14.27688572	      4.31967799	     -3.79886050	    -16.64887352	     15.63150293	      1.01972087	      0.00000000	    -31.74205742	     -2.41623133	     14.26585036
      5.34000000	     14.14808051	      1.07560489	     -4.75543694	      1.65130016	      0.73037528	     -0.26452854	    -29.68626793	     -2.95190492	     -9.90778210	    -26.60958366	     26.00540406	     32.46743822	      0.00000000	     14.06485474	      5.22062811	     -3.44735218	    -17.62570006	     15.14109245	      0.09369544	      0.00000000	    -31.56791982	     -3.16064740	     14.12879337
      5.34500000	     14.24103568	      1.78240502	     -4.66896987	      1.66047199	      0.73070199	     -0.26479244	    -29.24915623	     -3.94750893	    -10.45468473	    -28.82431052	     23.98370961	     32.72010175	      0.00000000	     13.82968305	      6.13600800	     -3.10229485	    -18.59342845	     14.68296984	     -0.77997128	      0.00000000	    -31.40922280	     -3.91122032	     13.94885348
      5.35000000	     14.33321727	      2.48867779	     -4.56211170	      1.66959371	      0.73111936	     -0.26506901	    -28.73501702	     -4.94094089	    -10.95935652	    -31.09776186	     21.77014912	     32.76858190	      0.00000000	     13.57052023	      7.04280997	     -2.78895486	    -19.54220655	     14.29260433	     -1.53159867	      0.00000000	    -31.26878528	     -4.65324348	     13.75290799
      5.35500000	     14.41823464	      3.19139936	     -4.43537103	      1.67864985	      0.73161713	     -0.26534079	    -28.14040369	     -5.92423779	    -11.41034162	    -33.40908784	     19.41414400	     32.58581338	      0.00000000	     13.28458036	      7.93257008	     -2.51374392	    -20.44337603	     13.98347836	     -2.12991853	      0.00000000	    -31.14463610	     -5.38274202	     13.53317826
      5.36000000	     14.49095149	      3.89805768	     -4.29629429	      1.68764346	      0.73218099	     -0.26562704	    -27.46194465	     -6.91362069	    -11.81759492	    -35.74112335	     16.99638993	     32.20167428	      0.00000000	     12.96154674	      8.82323556	     -2.23637246	    -21.26109233	     13.78757754	     -2.65276753	      0.00000000	    -31.02674757	     -6.10663477	     13.28133527
      5.36500000	     14.56989215	      4.55852820	     -4.14533100	      1.69653846	      0.73285199	     -0.26585700	    -26.72633829	     -7.83224128	    -12.10845236	    -38.04827827	     14.54497666	     31.52853798	      0.00000000	     12.57043486	      9.63481744	     -2.05349718	    -21.97618447	     13.75974613	     -2.83849017	      0.00000000	    -30.94577571	     -6.78033455	     12.99459045
      5.37000000	     14.59552572	      5.27261133	     -3.98342582	      1.70536426	      0.73349428	     -0.26615029	    -25.87478223	     -8.82100827	    -12.42613968	    -40.35623246	     12.30750774	     30.67871291	      0.00000000	     12.20139288	     10.52186774	     -1.78669562	    -22.62234284	     13.76617793	     -3.22133989	      0.00000000	    -30.82330327	     -7.49934433	     12.71077150
